<svg width="48" height="48" viewBox="0 0 48 48" fill="none" xmlns="http://www.w3.org/2000/svg">
<path fill-rule="evenodd" clip-rule="evenodd" d="M11.25 3C9.17893 3 7.5 4.67893 7.5 6.75V41.25C7.5 43.3211 9.17893 45 11.25 45H36.75C38.8211 45 40.5 43.3211 40.5 41.25V25.5C40.5 21.3579 37.1421 18 33 18H29.25C27.1789 18 25.5 16.3211 25.5 14.25V10.5C25.5 6.35786 22.1421 3 18 3H11.25ZM15 30C15 29.1716 15.6716 28.5 16.5 28.5H31.5C32.3284 28.5 33 29.1716 33 30C33 30.8284 32.3284 31.5 31.5 31.5H16.5C15.6716 31.5 15 30.8284 15 30ZM16.5 34.5C15.6716 34.5 15 35.1716 15 36C15 36.8284 15.6716 37.5 16.5 37.5H24C24.8284 37.5 25.5 36.8284 25.5 36C25.5 35.1716 24.8284 34.5 24 34.5H16.5Z" fill="#0D6EFD"/>
<path d="M25.9424 3.63181C27.5359 5.47296 28.5 7.87389 28.5 10.5V14.25C28.5 14.6642 28.8358 15 29.25 15H33C35.6261 15 38.027 15.9641 39.8682 17.5576C38.0924 10.7598 32.7402 5.40755 25.9424 3.63181Z" fill="#0D6EFD"/>
</svg>
