<svg width="48" height="48" viewBox="0 0 48 48" fill="none" xmlns="http://www.w3.org/2000/svg">
<path d="M24 30C27.3137 30 30 27.3137 30 24C30 20.6863 27.3137 18 24 18C20.6863 18 18 20.6863 18 24C18 27.3137 20.6863 30 24 30Z" fill="#0D6EFD"/>
<path fill-rule="evenodd" clip-rule="evenodd" d="M2.64682 22.8934C5.62133 13.9514 14.0558 7.5 24.001 7.5C33.9416 7.5 42.3729 13.9454 45.3511 22.8809C45.5918 23.603 45.592 24.3843 45.3517 25.1066C42.3772 34.0486 33.9427 40.5 23.9975 40.5C14.0569 40.5 5.62567 34.0546 2.64748 25.1191C2.40679 24.397 2.40657 23.6157 2.64682 22.8934ZM34.5 24C34.5 29.799 29.799 34.5 24 34.5C18.201 34.5 13.5 29.799 13.5 24C13.5 18.201 18.201 13.5 24 13.5C29.799 13.5 34.5 18.201 34.5 24Z" fill="#0D6EFD"/>
</svg>
