<svg width="48" height="48" viewBox="0 0 48 48" fill="none" xmlns="http://www.w3.org/2000/svg">
<path d="M39 42C42.3137 42 45 39.3137 45 36V27C45 23.6863 42.3137 21 39 21H9C5.68629 21 3 23.6863 3 27V36C3 39.3137 5.68629 42 9 42H39Z" fill="#0D6EFD"/>
<path d="M3 20.2917V12C3 8.68629 5.68629 6 9 6H19.7574C20.9508 6 22.0954 6.47411 22.9393 7.31802L27.182 11.5607C27.4633 11.842 27.8448 12 28.2426 12H39C42.3137 12 45 14.6863 45 18V20.2917C43.4077 18.8666 41.3051 18 39 18H9C6.69494 18 4.59227 18.8666 3 20.2917Z" fill="#0D6EFD"/>
</svg>
