<svg width="48" height="48" viewBox="0 0 48 48" fill="none" xmlns="http://www.w3.org/2000/svg">
<path d="M18.75 6C16.6789 6 15 7.67893 15 9.75C15 11.8211 16.6789 13.5 18.75 13.5H22.5V22.5H6.75C4.67893 22.5 3 20.8211 3 18.75V17.25C3 15.1789 4.67893 13.5 6.75 13.5H13.1367C12.4187 12.4274 12 11.1376 12 9.75C12 6.02208 15.0221 3 18.75 3C20.8705 3 22.7625 3.97775 24 5.507C25.2375 3.97775 27.1296 3 29.25 3C32.9779 3 36 6.02208 36 9.75C36 11.1376 35.5813 12.4274 34.8633 13.5H42.75C44.8211 13.5 46.5 15.1789 46.5 17.25V18.75C46.5 20.8211 44.8211 22.5 42.75 22.5H25.5V13.5H29.25C31.3211 13.5 33 11.8211 33 9.75C33 7.67893 31.3211 6 29.25 6C27.1789 6 25.5 7.67893 25.5 9.75V13.5H22.5V9.75C22.5 7.67893 20.8211 6 18.75 6Z" fill="#0D6EFD"/>
<path d="M22.5 25.5H6V39C6 41.4853 8.01472 43.5 10.5 43.5H22.5V25.5Z" fill="#0D6EFD"/>
<path d="M25.5 25.5V43.5H39C41.4853 43.5 43.5 41.4853 43.5 39V25.5H25.5Z" fill="#0D6EFD"/>
</svg>
