<svg width="48" height="48" viewBox="0 0 48 48" fill="none" xmlns="http://www.w3.org/2000/svg">
<path fill-rule="evenodd" clip-rule="evenodd" d="M31.5 3C24.0442 3 18 9.04416 18 16.5C18 17.2874 18.0676 18.0603 18.1976 18.8128C18.332 19.5905 18.1336 20.2451 17.7553 20.6233L4.75736 33.6213C3.63214 34.7465 3 36.2727 3 37.864V43.5C3 44.3284 3.67157 45 4.5 45H12C12.8284 45 13.5 44.3284 13.5 43.5V40.5H16.5C17.3284 40.5 18 39.8284 18 39V36H21C21.3978 36 21.7794 35.842 22.0607 35.5607L27.3767 30.2447C27.7549 29.8664 28.4095 29.668 29.1872 29.8024C29.9397 29.9324 30.7125 30 31.5 30C38.9558 30 45 23.9558 45 16.5C45 9.04416 38.9558 3 31.5 3ZM31.5 9C30.6716 9 30 9.67157 30 10.5C30 11.3284 30.6716 12 31.5 12C33.9853 12 36 14.0147 36 16.5C36 17.3284 36.6716 18 37.5 18C38.3284 18 39 17.3284 39 16.5C39 12.3579 35.6421 9 31.5 9Z" fill="#0D6EFD"/>
</svg>
