<svg width="48" height="48" viewBox="0 0 48 48" fill="none" xmlns="http://www.w3.org/2000/svg">
<path d="M43.4623 4.53769C41.4121 2.48744 38.0879 2.48744 36.0377 4.53769L33.7234 6.85198L41.148 14.2766L43.4623 11.9623C45.5126 9.91206 45.5126 6.58794 43.4623 4.53769Z" fill="#0D6EFD"/>
<path d="M39.0267 16.3979L31.6021 8.9733L14.8004 25.775C13.5668 27.0086 12.66 28.5301 12.162 30.202L10.5624 35.5718C10.4052 36.0996 10.5499 36.6712 10.9393 37.0606C11.3288 37.4501 11.9004 37.5948 12.4282 37.4376L17.798 35.838C19.47 35.3399 20.9915 34.4332 22.225 33.1996L39.0267 16.3979Z" fill="#0D6EFD"/>
<path d="M10.5 10.5C7.18629 10.5 4.5 13.1863 4.5 16.5V37.5C4.5 40.8137 7.18629 43.5 10.5 43.5H31.5C34.8137 43.5 37.5 40.8137 37.5 37.5V27C37.5 26.1716 36.8284 25.5 36 25.5C35.1716 25.5 34.5 26.1716 34.5 27V37.5C34.5 39.1568 33.1569 40.5 31.5 40.5H10.5C8.84315 40.5 7.5 39.1568 7.5 37.5V16.5C7.5 14.8431 8.84315 13.5 10.5 13.5H21C21.8284 13.5 22.5 12.8284 22.5 12C22.5 11.1716 21.8284 10.5 21 10.5H10.5Z" fill="#0D6EFD"/>
</svg>
