<svg width="48" height="48" viewBox="0 0 48 48" fill="none" xmlns="http://www.w3.org/2000/svg">
<path d="M9 12.75C9 8.19365 12.6937 4.5 17.25 4.5C21.8063 4.5 25.5 8.19365 25.5 12.75C25.5 17.3063 21.8063 21 17.25 21C12.6937 21 9 17.3063 9 12.75Z" fill="#0D6EFD"/>
<path d="M28.5 17.25C28.5 13.5221 31.5221 10.5 35.25 10.5C38.9779 10.5 42 13.5221 42 17.25C42 20.9779 38.9779 24 35.25 24C31.5221 24 28.5 20.9779 28.5 17.25Z" fill="#0D6EFD"/>
<path d="M3 38.25C3 30.3799 9.37994 24 17.25 24C25.1201 24 31.5 30.3799 31.5 38.25V38.2551C31.5 38.3347 31.4993 38.4147 31.4979 38.4939C31.4893 39.0109 31.2149 39.487 30.7719 39.7537C26.8214 42.1322 22.1931 43.5 17.25 43.5C12.3069 43.5 7.67859 42.1322 3.72812 39.7537C3.28513 39.487 3.01075 39.0109 3.00205 38.4939C3.00069 38.4128 3 38.3315 3 38.25Z" fill="#0D6EFD"/>
<path d="M34.4997 38.2563C34.4997 38.3524 34.4988 38.4488 34.4972 38.5443C34.4858 39.2216 34.3224 39.8755 34.0313 40.4639C34.4345 40.4879 34.8407 40.5 35.2497 40.5C38.4411 40.5 41.4641 39.7607 44.1529 38.4425C44.6469 38.2003 44.9687 37.7071 44.9913 37.1574C44.9969 37.0222 44.9997 36.8864 44.9997 36.75C44.9997 31.3652 40.6345 27 35.2497 27C33.7568 27 32.3423 27.3355 31.0774 27.9353C33.2269 30.8123 34.4997 34.3825 34.4997 38.25V38.2563Z" fill="#0D6EFD"/>
</svg>
