<svg width="48" height="48" viewBox="0 0 48 48" fill="none" xmlns="http://www.w3.org/2000/svg">
<g clip-path="url(#clip0_219_2)">
<path d="M18 9C19.1935 9 20.3381 8.52589 21.182 7.68198C22.0259 6.83807 22.5 5.69347 22.5 4.5C22.5 3.30653 22.0259 2.16193 21.182 1.31802C20.3381 0.474106 19.1935 0 18 0C16.8065 0 15.6619 0.474106 14.818 1.31802C13.9741 2.16193 13.5 3.30653 13.5 4.5C13.5 5.69347 13.9741 6.83807 14.818 7.68198C15.6619 8.52589 16.8065 9 18 9ZM11.2969 23.175C12.4594 22.7344 13.05 21.4406 12.6094 20.2781C12.1688 19.1156 10.875 18.525 9.7125 18.9656C4.04062 21.1031 0 26.5781 0 33C0 41.2875 6.7125 48 15 48C20.7375 48 25.7156 44.7844 28.2375 40.0594C28.8188 38.9625 28.4062 37.6031 27.3094 37.0125C26.2125 36.4219 24.8531 36.8438 24.2625 37.9406C22.5 41.25 19.0125 43.5 15 43.5C9.19687 43.5 4.5 38.8031 4.5 33C4.5 28.5094 7.32187 24.675 11.2969 23.175ZM24.3562 16.5L24.1781 15.5906C23.7562 13.5 21.9281 12 19.7906 12C16.9688 12 14.85 14.5781 15.4031 17.3438L17.5687 28.1719C18.1312 30.975 20.5875 32.9906 23.4562 32.9906H23.9344C23.9719 32.9906 24.0094 32.9906 24.0563 32.9906H32.8781C33.5063 32.9906 34.0594 33.375 34.2844 33.9656L37.6875 43.05C38.25 44.5594 39.9188 45.3562 41.4469 44.8406L45.9469 43.3406C47.5219 42.8156 48.3656 41.1187 47.8406 39.5437C47.3156 37.9687 45.6187 37.125 44.0437 37.65L42.2906 38.2312L39.9 31.8562C38.8031 28.9312 36 26.9906 32.8781 26.9906H26.4563L25.5563 22.4906H31.5C33.1594 22.4906 34.5 21.15 34.5 19.4906C34.5 17.8312 33.1594 16.4906 31.5 16.4906H24.3562V16.5Z" fill="#FFFFFF"/>
</g>
<defs>
<clipPath id="clip0_219_2">
<rect width="48" height="48" fill="white"/>
</clipPath>
</defs>
</svg>
